<svg xmlns="http://www.w3.org/2000/svg" xml:space="preserve" viewBox="0 0 800 222"><path d="M362.89 85.89h18.73v84.72h-18.73zM362.89 54.16h18.73v21.1h-18.73zM399.43 52.29h18.73v118.33h-18.73zM439.04 85.89h18.73v84.72h-18.73zM439.04 54.16h18.73v21.1h-18.73zM538.68 96.12c-2.68-3.34-5.83-6.02-9.44-8.04-4.86-2.71-10.47-4.06-16.81-4.06-7.68 0-14.54 1.8-20.57 5.39-6.04 3.6-10.82 8.52-14.36 14.77-3.53 6.25-5.3 13.39-5.3 21.42 0 7.92 1.76 15.06 5.3 21.42 3.53 6.35 8.37 11.36 14.51 15 6.14 3.65 13.05 5.47 20.73 5.47 6.24 0 11.85-1.35 16.81-4.07 3.17-1.73 5.9-3.97 8.21-6.72v9.84c0 4.37-.95 8.13-2.84 11.25-1.89 3.13-4.48 5.5-7.75 7.11-3.28 1.61-7.06 2.42-11.36 2.42-5.43 0-10.01-1.25-13.74-3.75-3.74-2.5-6.27-5.73-7.6-9.69l-17.35 6.88c1.74 4.9 4.5 9.15 8.29 12.74 3.78 3.6 8.29 6.41 13.51 8.44 5.22 2.03 10.9 3.05 17.04 3.05 7.88 0 14.87-1.67 20.96-5 6.09-3.34 10.87-7.89 14.36-13.68 3.48-5.79 5.22-12.38 5.22-19.77V85.89h-17.81v10.23zm-3.83 41.99c-1.95 3.65-4.63 6.51-8.06 8.6-3.43 2.08-7.35 3.13-11.75 3.13-4.51 0-8.52-1.07-12.05-3.21-3.53-2.13-6.29-5-8.29-8.6-2-3.6-2.99-7.68-2.99-12.27s1-8.7 2.99-12.35c2-3.65 4.76-6.54 8.29-8.68 3.53-2.13 7.55-3.21 12.05-3.21 4.3 0 8.16 1.07 11.59 3.21 3.43 2.14 6.14 5.03 8.14 8.68 2 3.65 2.99 7.76 2.99 12.35 0 4.58-.97 8.7-2.91 12.35zM638.71 96.21c-3.43-3.86-7.63-6.85-12.59-8.99-4.97-2.13-10.62-3.21-16.97-3.21-7.78 0-14.79 1.9-21.04 5.7-6.24 3.81-11.18 9.02-14.82 15.63-3.63 6.62-5.45 14.15-5.45 22.59 0 8.34 1.79 15.87 5.37 22.59 3.58 6.72 8.6 12.06 15.05 16.02s13.87 5.94 22.26 5.94c5.73 0 10.98-.89 15.74-2.66s8.88-4.24 12.36-7.42c3.48-3.18 6.04-6.75 7.68-10.71l-15.35-7.66c-1.95 3.44-4.61 6.23-7.98 8.36-3.38 2.14-7.47 3.21-12.28 3.21-4.71 0-8.91-1.12-12.59-3.36-3.69-2.24-6.5-5.44-8.44-9.61-1.25-2.69-2.01-5.66-2.29-8.91h60.94c.41-1.25.67-2.63.77-4.14.1-1.51.15-2.94.15-4.3 0-5.63-.9-10.92-2.69-15.87-1.79-4.94-4.4-9.34-7.83-13.2zm-49.21 16.65c1.84-4.22 4.48-7.45 7.91-9.69 3.43-2.24 7.34-3.36 11.75-3.36 4.5 0 8.39 1.15 11.67 3.44 3.28 2.29 5.68 5.37 7.22 9.22.79 2 1.24 4.13 1.35 6.41h-41.64c.37-2.17.94-4.18 1.74-6.02zM721.31 88.08c-4.76-2.71-10.21-4.06-16.35-4.06-5.94 0-11.13 1.36-15.58 4.06-3.34 2.03-5.98 4.77-7.91 8.22V85.89h-17.81v84.72h18.73v-49.87c0-3.96.74-7.37 2.23-10.24 1.48-2.87 3.58-5.08 6.3-6.64 2.71-1.56 5.81-2.35 9.29-2.35 3.38 0 6.4.78 9.06 2.35 2.66 1.56 4.73 3.78 6.22 6.64 1.48 2.87 2.23 6.28 2.23 10.24v49.87h18.73V115.9c0-6.25-1.33-11.77-3.99-16.57-2.68-4.78-6.38-8.54-11.15-11.25zM797.16 154.52c-.97.1-1.87.16-2.69.16-3.17 0-5.81-.52-7.91-1.56-2.1-1.04-3.63-2.55-4.61-4.53-.97-1.98-1.46-4.43-1.46-7.35v-38.3h19.04V85.89H780.5V66.51h-18.73v6.56c0 4.06-1.1 7.22-3.3 9.46-2.2 2.24-5.3 3.36-9.29 3.36h-1.84v17.04h14.43v39.23c0 9.38 2.51 16.62 7.52 21.73 5.01 5.11 12.08 7.66 21.19 7.66 1.43 0 3.04-.1 4.84-.31 1.79-.21 3.35-.42 4.68-.63V154.2c-.92.11-1.87.22-2.84.32zM318.14 61.51c-8.85-4.9-19.27-7.34-31.24-7.34h-41.94v116.46h41.94c11.98 0 22.39-2.48 31.24-7.43 8.85-4.95 15.71-11.8 20.57-20.56 4.86-8.75 7.29-18.86 7.29-30.33 0-11.46-2.43-21.57-7.29-30.33-4.86-8.75-11.71-15.57-20.57-20.47zm3.38 72.3c-3.22 6.1-7.75 10.81-13.59 14.15-5.83 3.34-12.74 5-20.73 5h-22.75V71.83h22.75c7.98 0 14.89 1.64 20.73 4.92 5.83 3.28 10.36 7.95 13.59 13.99 3.22 6.05 4.84 13.18 4.84 21.42 0 8.33-1.61 15.55-4.84 21.65z"/><path fill="#ee312e" d="M200.87 110.85c0 33.96-12.19 61.94-33.03 81.28-.24.21-.42.43-.66.64-15.5 14.13-35.71 23.52-59.24 27.11l-1.59-1.62 35.07-201.75 1.32-3.69c35.9 17.54 58.13 52.55 58.13 98.03z"/><path fill="#af292e" d="m142.75 12.83-.99 1.47L.74 119.34l-.74-.69V.45h85.63c5.91 0 11.64.34 17.19 1.01h.21c14.02 1.66 26.93 5.31 38.48 10.78.46.22 1.24.59 1.24.59z"/><path fill="#d3222a" d="M142.75 12.83 0 118.65v102.89h85.96c7.61 0 14.94-.58 21.99-1.66 0 .01 34.8-207.05 34.8-207.05z"/></svg>